<?xml version="1.0" encoding="UTF-8"?>
<svg id="Layer_2" data-name="Layer 2" xmlns="http://www.w3.org/2000/svg" viewBox="0 0 742.04 662.78">
  <defs>
    <style>
      .cls-1 {
        letter-spacing: 0em;
      }

      .cls-2 {
        letter-spacing: -.01em;
      }

      .cls-3 {
        letter-spacing: 0em;
      }

      .cls-4 {
        letter-spacing: -.02em;
      }

      .cls-5 {
        fill: #f39d8e;
      }

      .cls-6 {
        fill: #f5aba1;
      }

      .cls-7 {
        fill: #8cb7c9;
      }

      .cls-8 {
        letter-spacing: 0em;
      }

      .cls-9 {
        letter-spacing: -.01em;
      }

      .cls-10 {
        letter-spacing: .08em;
      }

      .cls-11 {
        letter-spacing: -.01em;
      }

      .cls-12 {
        letter-spacing: -.01em;
      }

      .cls-13 {
        letter-spacing: 0em;
      }

      .cls-14 {
        letter-spacing: 0em;
      }

      .cls-15 {
        letter-spacing: -.02em;
      }

      .cls-16 {
        letter-spacing: -.06em;
      }

      .cls-17 {
        letter-spacing: 0em;
      }

      .cls-18 {
        letter-spacing: 0em;
      }

      .cls-19 {
        letter-spacing: 0em;
      }

      .cls-20 {
        letter-spacing: .02em;
      }

      .cls-21 {
        letter-spacing: 0em;
      }

      .cls-22 {
        letter-spacing: -.02em;
      }

      .cls-23 {
        letter-spacing: 0em;
      }

      .cls-24 {
        fill: #fff;
        font-family: Montserrat-Bold, Montserrat;
        font-weight: 700;
      }

      .cls-24, .cls-25 {
        font-size: 19.84px;
      }

      .cls-26 {
        letter-spacing: -.02em;
      }

      .cls-27 {
        letter-spacing: 0em;
      }

      .cls-25 {
        fill: #231f20;
        font-family: Montserrat-Medium, Montserrat;
        font-weight: 500;
      }

      .cls-28 {
        letter-spacing: 0em;
      }
    </style>
  </defs>
  <g id="Layer_1-2" data-name="Layer 1">
    <path class="cls-6" d="m742.04,662.78L485.51,224.22s-138.09,75.49-194.24,201.61"/>
    <path class="cls-7" d="m742.04,662.78l-480-5.89s-2.98-116.91,55.93-217.26"/>
    <path class="cls-5" d="m742.04,110.78v552L458.82,180.91s120.88-78.62,283.22-70.13Z"/>
    <text class="cls-24" transform="translate(586.75 323.97)"><tspan class="cls-17" x="0" y="0">E</tspan><tspan class="cls-3" x="13.23" y="0">ase of Use</tspan></text>
    <text class="cls-24" transform="translate(454.07 439.63)"><tspan x="0" y="0">E</tspan><tspan class="cls-14" x="13.31" y="0">n</tspan><tspan x="27.14" y="0">g</tspan><tspan class="cls-14" x="41.03" y="0">a</tspan><tspan x="53.4" y="0">gi</tspan><tspan class="cls-14" x="73.26" y="0">n</tspan><tspan x="87.09" y="0">g</tspan></text>
    <text class="cls-24" transform="translate(370.76 589.41)"><tspan class="cls-27" x="0" y="0">P</tspan><tspan class="cls-8" x="14.33" y="0">r</tspan><tspan x="22.7" y="0">ofitable</tspan></text>
    <text class="cls-25" transform="translate(446.21 16.87)"><tspan class="cls-16" x="0" y="0">W</tspan><tspan x="21.25" y="0">e ma</tspan><tspan class="cls-22" x="71.57" y="0">k</tspan><tspan x="83.36" y="0">e it qui</tspan><tspan class="cls-18" x="152.43" y="0">c</tspan><tspan x="163.62" y="0">k a</tspan><tspan class="cls-1" x="193.05" y="0">n</tspan><tspan x="206.62" y="0">d </tspan><tspan class="cls-26" x="225.49" y="0">e</tspan><tspan class="cls-3" x="237.33" y="0">a</tspan><tspan class="cls-2" x="249.2" y="0">s</tspan><tspan x="258.94" y="0">y </tspan><tspan class="cls-15" x="275.37" y="0">t</tspan><tspan x="283.23" y="0">o</tspan><tspan x="30.42" y="23.81">c</tspan><tspan class="cls-11" x="41.75" y="23.81">r</tspan><tspan class="cls-26" x="49.65" y="23.81">e</tspan><tspan x="61.49" y="23.81">a</tspan><tspan class="cls-4" x="73.36" y="23.81">t</tspan><tspan x="81.22" y="23.81">e cus</tspan><tspan class="cls-15" x="133.4" y="23.81">t</tspan><tspan class="cls-3" x="141.26" y="23.81">om fu</tspan><tspan class="cls-1" x="200.61" y="23.81">n</tspan><tspan x="214.18" y="23.81">d</tspan><tspan class="cls-21" x="227.71" y="23.81">r</tspan><tspan x="235.69" y="23.81">aisi</tspan><tspan class="cls-1" x="268.57" y="23.81">n</tspan><tspan x="282.14" y="23.81">g</tspan><tspan x="2.26" y="47.62">cam</tspan><tspan class="cls-28" x="46.43" y="47.62">p</tspan><tspan x="59.87" y="47.62">aigns, so </tspan><tspan class="cls-26" x="152.13" y="47.62">y</tspan><tspan x="162.93" y="47.62">ou can </tspan><tspan class="cls-21" x="236.34" y="47.62">f</tspan><tspan class="cls-3" x="243.19" y="47.62">ocus </tspan><tspan x="110.05" y="71.43">on </tspan><tspan class="cls-27" x="141.5" y="71.43">e</tspan><tspan class="cls-26" x="153.44" y="71.43">v</tspan><tspan x="164.24" y="71.43">e</tspan><tspan class="cls-20" x="176.38" y="71.43">ry</tspan><tspan x="196.2" y="71.43">thi</tspan><tspan class="cls-23" x="223.46" y="71.43">n</tspan><tspan x="237.04" y="71.43">g else</tspan></text>
    <text class="cls-25" transform="translate(143.65 187.3)"><tspan x="0" y="0">B</tspan><tspan class="cls-18" x="15.02" y="0">r</tspan><tspan x="23.02" y="0">i</tspan><tspan class="cls-1" x="28.55" y="0">n</tspan><tspan x="42.12" y="0">g </tspan><tspan class="cls-9" x="61.15" y="0">y</tspan><tspan x="71.95" y="0">our </tspan><tspan class="cls-21" x="111.45" y="0">c</tspan><tspan x="122.62" y="0">ommuni</tspan><tspan class="cls-27" x="209.65" y="0">t</tspan><tspan x="217.67" y="0">y</tspan><tspan class="cls-15" x="-6.63" y="23.81">t</tspan><tspan x="1.23" y="23.81">oget</tspan><tspan class="cls-1" x="47.88" y="23.81">h</tspan><tspan x="61.45" y="23.81">er </tspan><tspan class="cls-15" x="87.07" y="23.81">t</tspan><tspan x="94.93" y="23.81">o </tspan><tspan class="cls-1" x="112.86" y="23.81">a</tspan><tspan class="cls-21" x="124.79" y="23.81">cc</tspan><tspan x="147.13" y="23.81">omplish</tspan><tspan x="12.8" y="47.62">sha</tspan><tspan class="cls-11" x="48.12" y="47.62">r</tspan><tspan x="56.01" y="47.62">ed g</tspan><tspan class="cls-28" x="100.72" y="47.62">o</tspan><tspan class="cls-3" x="113.22" y="47.62">als th</tspan><tspan class="cls-11" x="167.63" y="47.62">r</tspan><tspan x="175.52" y="47.62">ough</tspan><tspan class="cls-21" x="51.91" y="71.43">c</tspan><tspan x="63.08" y="71.43">ollabo</tspan><tspan class="cls-21" x="124.75" y="71.43">r</tspan><tspan class="cls-3" x="132.72" y="71.43">ation a</tspan><tspan class="cls-23" x="201.66" y="71.43">n</tspan><tspan class="cls-3" x="215.23" y="71.43">d</tspan><tspan x="149.08" y="95.24">suppo</tspan><tspan class="cls-20" x="212.11" y="95.24">r</tspan><tspan x="220.55" y="95.24">t</tspan></text>
    <text class="cls-25" transform="translate(39.94 512.03)"><tspan x="0" y="0">Run a fu</tspan><tspan class="cls-1" x="84.35" y="0">n</tspan><tspan x="97.92" y="0">d</tspan><tspan class="cls-21" x="111.45" y="0">r</tspan><tspan x="119.43" y="0">aiser</tspan><tspan x="-39.94" y="23.81">with </tspan><tspan class="cls-1" x="10.5" y="23.81">n</tspan><tspan x="24.07" y="23.81">o up</tspan><tspan class="cls-10" x="68.97" y="23.81">f</tspan><tspan class="cls-12" x="77.56" y="23.81">r</tspan><tspan class="cls-3" x="85.46" y="23.81">ont </tspan><tspan class="cls-19" x="125.12" y="23.81">c</tspan><tspan class="cls-3" x="136.3" y="23.81">ost</tspan><tspan x="-37.21" y="47.62">AND </tspan><tspan class="cls-26" x="15.16" y="47.62">e</tspan><tspan x="27" y="47.62">a</tspan><tspan class="cls-13" x="38.87" y="47.62">r</tspan><tspan x="46.87" y="47.62">n up </tspan><tspan class="cls-15" x="98.02" y="47.62">t</tspan><tspan x="105.88" y="47.62">o 40%</tspan><tspan x="110.68" y="71.43">p</tspan><tspan class="cls-11" x="124.21" y="71.43">r</tspan><tspan x="132.11" y="71.43">ofit</tspan></text>
  </g>
</svg>